<mxfile host="www.draw.io" modified="2019-11-03T10:07:21.031Z" agent="Mozilla/5.0 (Windows NT 10.0; Win64; x64) AppleWebKit/537.36 (KHTML, like Gecko) Chrome/77.0.3865.120 Safari/537.36" etag="ClDBflGbA4QGW6nr3Ivn" version="12.1.9" type="github" pages="1">
  <diagram id="2twD82b5ImCGELpljjjg" name="Page-1">
    <mxGraphModel dx="1102" dy="565" grid="1" gridSize="10" guides="1" tooltips="1" connect="1" arrows="1" fold="1" page="1" pageScale="1" pageWidth="850" pageHeight="1100" background="#FFFFFF" math="0" shadow="1">
      <root>
        <mxCell id="0"/>
        <mxCell id="1" parent="0"/>
        <mxCell id="Au587F4Ic1VJoxMTOZfx-5" value="" style="edgeStyle=orthogonalEdgeStyle;rounded=0;orthogonalLoop=1;jettySize=auto;html=1;" parent="1" source="Au587F4Ic1VJoxMTOZfx-1" target="Au587F4Ic1VJoxMTOZfx-3" edge="1">
          <mxGeometry relative="1" as="geometry">
            <mxPoint x="350" y="250" as="targetPoint"/>
          </mxGeometry>
        </mxCell>
        <mxCell id="Au587F4Ic1VJoxMTOZfx-1" value="Start" style="ellipse;whiteSpace=wrap;html=1;" parent="1" vertex="1">
          <mxGeometry x="360" y="90" width="120" height="80" as="geometry"/>
        </mxCell>
        <mxCell id="Au587F4Ic1VJoxMTOZfx-2" value="Agent Role" style="text;html=1;strokeColor=none;fillColor=none;align=center;verticalAlign=middle;whiteSpace=wrap;rounded=0;" parent="1" vertex="1">
          <mxGeometry x="20" y="30" width="150" height="20" as="geometry"/>
        </mxCell>
        <mxCell id="Au587F4Ic1VJoxMTOZfx-7" value="" style="edgeStyle=orthogonalEdgeStyle;rounded=0;orthogonalLoop=1;jettySize=auto;html=1;" parent="1" source="Au587F4Ic1VJoxMTOZfx-3" target="Au587F4Ic1VJoxMTOZfx-6" edge="1">
          <mxGeometry relative="1" as="geometry"/>
        </mxCell>
        <mxCell id="Au587F4Ic1VJoxMTOZfx-3" value="Enter Rim and Search customer" style="rounded=1;whiteSpace=wrap;html=1;" parent="1" vertex="1">
          <mxGeometry x="360" y="250" width="120" height="60" as="geometry"/>
        </mxCell>
        <mxCell id="Au587F4Ic1VJoxMTOZfx-9" style="edgeStyle=orthogonalEdgeStyle;rounded=0;orthogonalLoop=1;jettySize=auto;html=1;" parent="1" source="Au587F4Ic1VJoxMTOZfx-6" target="Au587F4Ic1VJoxMTOZfx-8" edge="1">
          <mxGeometry relative="1" as="geometry"/>
        </mxCell>
        <mxCell id="Au587F4Ic1VJoxMTOZfx-6" value="Call Customer Info to check If customer is new or existing" style="rounded=1;whiteSpace=wrap;html=1;" parent="1" vertex="1">
          <mxGeometry x="360" y="370" width="120" height="60" as="geometry"/>
        </mxCell>
        <mxCell id="Au587F4Ic1VJoxMTOZfx-11" value="" style="edgeStyle=orthogonalEdgeStyle;rounded=0;orthogonalLoop=1;jettySize=auto;html=1;" parent="1" source="Au587F4Ic1VJoxMTOZfx-8" target="Au587F4Ic1VJoxMTOZfx-12" edge="1">
          <mxGeometry relative="1" as="geometry">
            <mxPoint x="300" y="550" as="targetPoint"/>
          </mxGeometry>
        </mxCell>
        <mxCell id="Au587F4Ic1VJoxMTOZfx-13" value="Yes" style="text;html=1;resizable=0;points=[];align=center;verticalAlign=middle;labelBackgroundColor=#ffffff;" parent="Au587F4Ic1VJoxMTOZfx-11" vertex="1" connectable="0">
          <mxGeometry x="-0.2" relative="1" as="geometry">
            <mxPoint as="offset"/>
          </mxGeometry>
        </mxCell>
        <mxCell id="Au587F4Ic1VJoxMTOZfx-17" value="No" style="edgeStyle=orthogonalEdgeStyle;rounded=0;orthogonalLoop=1;jettySize=auto;html=1;" parent="1" source="Au587F4Ic1VJoxMTOZfx-8" target="Au587F4Ic1VJoxMTOZfx-18" edge="1">
          <mxGeometry relative="1" as="geometry">
            <mxPoint x="540" y="550" as="targetPoint"/>
          </mxGeometry>
        </mxCell>
        <mxCell id="Au587F4Ic1VJoxMTOZfx-8" value="Is QIB Customer?" style="rhombus;whiteSpace=wrap;html=1;" parent="1" vertex="1">
          <mxGeometry x="380" y="510" width="80" height="80" as="geometry"/>
        </mxCell>
        <mxCell id="Au587F4Ic1VJoxMTOZfx-15" value="" style="edgeStyle=orthogonalEdgeStyle;rounded=0;orthogonalLoop=1;jettySize=auto;html=1;" parent="1" source="Au587F4Ic1VJoxMTOZfx-12" target="Au587F4Ic1VJoxMTOZfx-19" edge="1">
          <mxGeometry relative="1" as="geometry">
            <mxPoint x="185" y="770" as="targetPoint"/>
            <Array as="points">
              <mxPoint x="185" y="870"/>
              <mxPoint x="420" y="870"/>
            </Array>
          </mxGeometry>
        </mxCell>
        <mxCell id="Au587F4Ic1VJoxMTOZfx-12" value="Auto populate information from RIM details service and Fill all required details" style="rounded=1;whiteSpace=wrap;html=1;" parent="1" vertex="1">
          <mxGeometry x="125" y="670" width="120" height="80" as="geometry"/>
        </mxCell>
        <mxCell id="Au587F4Ic1VJoxMTOZfx-20" value="" style="edgeStyle=orthogonalEdgeStyle;rounded=0;orthogonalLoop=1;jettySize=auto;html=1;" parent="1" source="Au587F4Ic1VJoxMTOZfx-18" target="Au587F4Ic1VJoxMTOZfx-19" edge="1">
          <mxGeometry relative="1" as="geometry">
            <Array as="points">
              <mxPoint x="670" y="870"/>
              <mxPoint x="420" y="870"/>
            </Array>
          </mxGeometry>
        </mxCell>
        <mxCell id="Au587F4Ic1VJoxMTOZfx-18" value="Auto populate information from MOI service and Fill all required information" style="rounded=1;whiteSpace=wrap;html=1;" parent="1" vertex="1">
          <mxGeometry x="600" y="680" width="120" height="70" as="geometry"/>
        </mxCell>
        <mxCell id="Au587F4Ic1VJoxMTOZfx-22" style="edgeStyle=orthogonalEdgeStyle;rounded=0;orthogonalLoop=1;jettySize=auto;html=1;" parent="1" source="Au587F4Ic1VJoxMTOZfx-19" target="Au587F4Ic1VJoxMTOZfx-21" edge="1">
          <mxGeometry relative="1" as="geometry"/>
        </mxCell>
        <mxCell id="Au587F4Ic1VJoxMTOZfx-19" value="Submit To create Account" style="rounded=1;whiteSpace=wrap;html=1;" parent="1" vertex="1">
          <mxGeometry x="360" y="960" width="120" height="60" as="geometry"/>
        </mxCell>
        <mxCell id="Au587F4Ic1VJoxMTOZfx-24" value="" style="edgeStyle=orthogonalEdgeStyle;rounded=0;orthogonalLoop=1;jettySize=auto;html=1;" parent="1" source="Au587F4Ic1VJoxMTOZfx-21" target="Au587F4Ic1VJoxMTOZfx-25" edge="1">
          <mxGeometry relative="1" as="geometry">
            <mxPoint x="300" y="1120" as="targetPoint"/>
          </mxGeometry>
        </mxCell>
        <mxCell id="Au587F4Ic1VJoxMTOZfx-26" value="No&lt;br&gt;" style="text;html=1;resizable=0;points=[];align=center;verticalAlign=middle;labelBackgroundColor=#ffffff;" parent="Au587F4Ic1VJoxMTOZfx-24" vertex="1" connectable="0">
          <mxGeometry x="-0.3" y="1" relative="1" as="geometry">
            <mxPoint as="offset"/>
          </mxGeometry>
        </mxCell>
        <mxCell id="Au587F4Ic1VJoxMTOZfx-28" value="" style="edgeStyle=orthogonalEdgeStyle;rounded=0;orthogonalLoop=1;jettySize=auto;html=1;" parent="1" source="Au587F4Ic1VJoxMTOZfx-21" target="Au587F4Ic1VJoxMTOZfx-29" edge="1">
          <mxGeometry relative="1" as="geometry">
            <mxPoint x="420" y="1280" as="targetPoint"/>
          </mxGeometry>
        </mxCell>
        <mxCell id="Au587F4Ic1VJoxMTOZfx-33" value="Yes" style="text;html=1;resizable=0;points=[];align=center;verticalAlign=middle;labelBackgroundColor=#ffffff;" parent="Au587F4Ic1VJoxMTOZfx-28" vertex="1" connectable="0">
          <mxGeometry x="-0.2154" relative="1" as="geometry">
            <mxPoint as="offset"/>
          </mxGeometry>
        </mxCell>
        <mxCell id="Au587F4Ic1VJoxMTOZfx-21" value="Is QIB?&lt;br&gt;" style="rhombus;whiteSpace=wrap;html=1;" parent="1" vertex="1">
          <mxGeometry x="380" y="1080" width="80" height="80" as="geometry"/>
        </mxCell>
        <mxCell id="Au587F4Ic1VJoxMTOZfx-30" style="edgeStyle=orthogonalEdgeStyle;rounded=0;orthogonalLoop=1;jettySize=auto;html=1;" parent="1" source="Au587F4Ic1VJoxMTOZfx-25" target="Au587F4Ic1VJoxMTOZfx-29" edge="1">
          <mxGeometry relative="1" as="geometry">
            <Array as="points">
              <mxPoint x="190" y="1320"/>
            </Array>
          </mxGeometry>
        </mxCell>
        <mxCell id="Au587F4Ic1VJoxMTOZfx-25" value="Create RIM" style="rounded=1;whiteSpace=wrap;html=1;" parent="1" vertex="1">
          <mxGeometry x="140" y="1090" width="120" height="60" as="geometry"/>
        </mxCell>
        <mxCell id="Au587F4Ic1VJoxMTOZfx-32" style="edgeStyle=orthogonalEdgeStyle;rounded=0;orthogonalLoop=1;jettySize=auto;html=1;" parent="1" source="Au587F4Ic1VJoxMTOZfx-29" target="Au587F4Ic1VJoxMTOZfx-31" edge="1">
          <mxGeometry relative="1" as="geometry"/>
        </mxCell>
        <mxCell id="Au587F4Ic1VJoxMTOZfx-29" value="Create Account" style="rounded=1;whiteSpace=wrap;html=1;" parent="1" vertex="1">
          <mxGeometry x="360" y="1290" width="120" height="60" as="geometry"/>
        </mxCell>
        <mxCell id="tN4coY-oZ9cPaAGZ97Qc-3" value="" style="edgeStyle=orthogonalEdgeStyle;rounded=0;orthogonalLoop=1;jettySize=auto;html=1;" edge="1" parent="1" source="Au587F4Ic1VJoxMTOZfx-31" target="tN4coY-oZ9cPaAGZ97Qc-2">
          <mxGeometry relative="1" as="geometry"/>
        </mxCell>
        <mxCell id="Au587F4Ic1VJoxMTOZfx-31" value="Select card for newly created customer&lt;br&gt;&amp;nbsp;" style="rounded=1;whiteSpace=wrap;html=1;" parent="1" vertex="1">
          <mxGeometry x="360" y="1440" width="120" height="60" as="geometry"/>
        </mxCell>
        <mxCell id="tN4coY-oZ9cPaAGZ97Qc-4" value="" style="edgeStyle=orthogonalEdgeStyle;rounded=0;orthogonalLoop=1;jettySize=auto;html=1;" edge="1" parent="1" source="tN4coY-oZ9cPaAGZ97Qc-2" target="Au587F4Ic1VJoxMTOZfx-34">
          <mxGeometry relative="1" as="geometry"/>
        </mxCell>
        <mxCell id="tN4coY-oZ9cPaAGZ97Qc-2" value="Submit Card Request" style="rounded=1;whiteSpace=wrap;html=1;" vertex="1" parent="1">
          <mxGeometry x="360" y="1575" width="120" height="60" as="geometry"/>
        </mxCell>
        <mxCell id="Au587F4Ic1VJoxMTOZfx-34" value="Submit Request to create task in jBPM for AMU Team&amp;nbsp;" style="rounded=1;whiteSpace=wrap;html=1;" parent="1" vertex="1">
          <mxGeometry x="360" y="1710" width="120" height="60" as="geometry"/>
        </mxCell>
        <mxCell id="bWhokOLm7ul_z7ufvjEY-1" value="- Create Account" style="text;html=1;strokeColor=none;fillColor=none;align=left;verticalAlign=middle;whiteSpace=wrap;rounded=0;" parent="1" vertex="1">
          <mxGeometry x="60" y="1760" width="210" height="20" as="geometry"/>
        </mxCell>
        <mxCell id="bWhokOLm7ul_z7ufvjEY-4" value="- Create Card for newly created customer" style="text;html=1;strokeColor=none;fillColor=none;align=left;verticalAlign=middle;whiteSpace=wrap;rounded=0;" parent="1" vertex="1">
          <mxGeometry x="60" y="1790" width="240" height="20" as="geometry"/>
        </mxCell>
        <mxCell id="bWhokOLm7ul_z7ufvjEY-5" value="- ReIssue Card" style="text;html=1;strokeColor=none;fillColor=none;align=left;verticalAlign=middle;whiteSpace=wrap;rounded=0;" parent="1" vertex="1">
          <mxGeometry x="60" y="1850" width="240" height="20" as="geometry"/>
        </mxCell>
        <mxCell id="bWhokOLm7ul_z7ufvjEY-6" value="- Enrich Rim" style="text;html=1;strokeColor=none;fillColor=none;align=left;verticalAlign=middle;whiteSpace=wrap;rounded=0;" parent="1" vertex="1">
          <mxGeometry x="60" y="1880" width="240" height="20" as="geometry"/>
        </mxCell>
        <mxCell id="tN4coY-oZ9cPaAGZ97Qc-1" value="- Apply for card for existing customer" style="text;html=1;strokeColor=none;fillColor=none;align=left;verticalAlign=middle;whiteSpace=wrap;rounded=0;" vertex="1" parent="1">
          <mxGeometry x="60" y="1820" width="240" height="20" as="geometry"/>
        </mxCell>
      </root>
    </mxGraphModel>
  </diagram>
</mxfile>
